<?xml version="1.0" encoding="UTF-8"?>
<svg version="1.1" xmlns="http://www.w3.org/2000/svg" width="512" height="512">
<path d="M0 0 C0 9.9 0 19.8 0 30 C-4.95 31.98 -4.95 31.98 -10 34 C-14.14426791 38.14426791 -15.82511197 40.90134362 -16.3125 46.75 C-16.23667782 51.3330296 -14.8631789 54.45468444 -12 58 C-8.33297182 61.48814876 -5.42603649 62.29279901 -0.5 62.5 C7.20247934 62.19732805 10.78110589 58.26253035 16 53 C19.69034779 54.49764809 23.37449227 56.00953075 27.0534668 57.53491211 C28.30607127 58.05189348 29.56030678 58.56494111 30.81616211 59.07397461 C32.61995553 59.80589711 34.4175123 60.55313098 36.21484375 61.30078125 C37.29886475 61.74591064 38.38288574 62.19104004 39.49975586 62.6496582 C42 64 42 64 43 67 C38.36759772 78.15804723 29.56690428 85.8866337 18.8203125 90.84765625 C15.56431187 92.17801662 12.42745718 93.22103246 9 94 C18.26204934 106.09211997 32.62188191 113.85548388 45.1875 122.125 C64.93662774 135.1231606 64.93662774 135.1231606 72 141 C72.93070312 141.77085937 73.86140625 142.54171875 74.8203125 143.3359375 C86.98525904 154.0988224 96.11028624 166.98120573 97.16845703 183.65429688 C97.69313208 196.94021073 97.23273817 209.3017855 93 222 C92.91602843 224.35680213 92.89271813 226.71594081 92.90234375 229.07421875 C92.9037587 229.7580513 92.90517365 230.44188385 92.90663147 231.1464386 C92.91222124 233.32683722 92.92477178 235.50713251 92.9375 237.6875 C92.94251633 239.16731622 92.947079 240.64713406 92.95117188 242.12695312 C92.96218729 245.75133557 92.97944488 249.3756577 93 253 C93.47288452 251.9944104 93.47288452 251.9944104 93.95532227 250.96850586 C98.78453779 240.9605264 105.76530112 234.84025025 114.25 227.875 C114.84031006 227.37685791 115.43062012 226.87871582 116.03881836 226.36547852 C118.49682184 224.41068287 120.29983381 223.04733828 123.484375 222.83203125 C127.20110682 224.55765674 129.97766671 227.07754669 133 229.8125 C134.20774248 230.8821779 135.41606532 231.95120093 136.625 233.01953125 C137.20008301 233.53354492 137.77516602 234.04755859 138.36767578 234.57714844 C139.78355618 235.81133195 141.25854138 236.97707273 142.7421875 238.12890625 C144.98779935 239.98988908 146.49803242 241.7156655 148.125 244.125 C148.60195313 244.80820313 149.07890625 245.49140625 149.5703125 246.1953125 C154.0465305 254.97652704 154.42170808 263.45298873 154.34057617 273.17041016 C154.33972823 274.57088197 154.34020831 275.97135512 154.34190369 277.37182617 C154.34275854 281.14396022 154.32521639 284.91580355 154.30418181 288.6878705 C154.2853291 292.64096859 154.28365784 296.59407458 154.28010559 300.54721069 C154.27081022 308.0197105 154.24623071 315.49207741 154.21605712 322.9645189 C154.18243465 331.47726653 154.16600744 339.99002076 154.15097082 348.50281835 C154.11967868 366.00195555 154.06696742 383.50096369 154 401 C158.14717043 399.10990304 162.29066782 397.21188033 166.43359375 395.3125 C168.17981018 394.51682617 168.17981018 394.51682617 169.96130371 393.70507812 C183.72579137 387.38393288 196.18277732 379.8928466 208.38305664 370.93359375 C211.817347 368.42772701 214.90869506 366.33205277 219 365 C208.32261878 387.42846557 194.85931444 408.3358528 177.58984375 426.29296875 C175.50394869 428.4732482 173.55028498 430.68101585 171.625 433 C131.19431919 479.35921814 65.40669979 507.23501975 5 512 C1.67399085 512.14500014 -1.64765716 512.18602107 -4.9765625 512.203125 C-5.89647476 512.21018463 -6.81638702 512.21724426 -7.76417542 512.22451782 C-46.48092214 512.45416008 -46.48092214 512.45416008 -64 509 C-65.53648193 508.70198486 -65.53648193 508.70198486 -67.10400391 508.39794922 C-102.15411506 501.38792699 -135.41854794 488.15103793 -165 468 C-165.57314941 467.61231445 -166.14629883 467.22462891 -166.73681641 466.82519531 C-176.04049272 460.49132925 -184.59413102 453.47353661 -193 446 C-193.51272461 445.55043945 -194.02544922 445.10087891 -194.55371094 444.63769531 C-217.84253325 424.19747326 -236.62579555 399.40229041 -251 372 C-251.42925781 371.1862793 -251.85851562 370.37255859 -252.30078125 369.53417969 C-267.52935695 340.27293229 -276.13413332 308.67560588 -280 276 C-280.13277344 274.91460937 -280.26554687 273.82921875 -280.40234375 272.7109375 C-287.09396099 204.69477325 -264.9806683 136.05692548 -222.375 83.1875 C-220.92563724 81.45080743 -219.46770575 79.72121856 -218 78 C-217.35289062 77.24074219 -216.70578125 76.48148437 -216.0390625 75.69921875 C-205.38842806 63.55912777 -193.91160442 51.73364271 -181 42 C-180.46262207 41.58621094 -179.92524414 41.17242187 -179.37158203 40.74609375 C-143.28345937 13 -143.28345937 13 -133 13 C-134.67342735 16.75611683 -137.06648265 19.90341483 -139.5 23.1875 C-148.75158648 35.93676123 -156.36624905 49.72839857 -163 64 C-163.49064941 65.05380859 -163.49064941 65.05380859 -163.99121094 66.12890625 C-173.15118331 86.11105087 -179.47638252 107.313957 -183 129 C-183.31904297 130.88332031 -183.31904297 130.88332031 -183.64453125 132.8046875 C-193.34856648 198.84797765 -174.70713397 266.00286117 -135.16381836 319.2565918 C-130.61932837 325.25408814 -125.66787225 330.81075174 -120.5234375 336.2890625 C-118.42580917 338.54255176 -116.4194089 340.83340164 -114.4375 343.1875 C-109.31408173 349.09724626 -103.26231258 354.06494211 -97.3359375 359.14208984 C-96.70993652 359.67845062 -96.08393555 360.2148114 -95.43896484 360.76742554 C-94.96410645 361.17417511 -94.48924805 361.58092468 -94 362 C-93.92975848 343.82315528 -93.8769379 325.64634603 -93.84456348 307.46939468 C-93.82912849 299.02854104 -93.80810378 290.58777199 -93.77368164 282.14697266 C-93.74367572 274.7855507 -93.72440055 267.42419004 -93.71773452 260.06270862 C-93.71384111 256.1688571 -93.70476229 252.27518086 -93.68280983 248.3813858 C-93.66226726 244.70749127 -93.65620158 241.03384223 -93.66067696 237.35989571 C-93.6594734 235.38692701 -93.64342512 233.41398432 -93.6267395 231.44108582 C-93.6539378 223.50784892 -94.8261993 216.60901063 -97 209 C-100.34252012 190.51897304 -97.91024959 172.11627673 -88 156 C-76.91527873 140.68413263 -58.68263429 130.37212764 -43.140625 120.13671875 C-25.20820369 108.69586313 -25.20820369 108.69586313 -9 95 C-10.11375 94.608125 -11.2275 94.21625 -12.375 93.8125 C-26.51716824 88.40959418 -37.6835734 80.4363003 -44.21484375 66.38671875 C-49.20597618 54.39734369 -49.5503594 42.3667113 -45.25390625 30.03125 C-40.08071291 17.52533714 -32.16120281 8.95526397 -19.89453125 3.19140625 C-18.93933594 2.79824219 -17.98414063 2.40507813 -17 2 C-15.67548828 1.42572266 -15.67548828 1.42572266 -14.32421875 0.83984375 C-11 0 -11 0 0 0 Z " fill="#005F7E" transform="translate(287,0)"/>
<path d="M0 0 C0 9.9 0 19.8 0 30 C-3.3 31.32 -6.6 32.64 -10 34 C-14.14426791 38.14426791 -15.82511197 40.90134362 -16.3125 46.75 C-16.23667782 51.3330296 -14.8631789 54.45468444 -12 58 C-8.33297182 61.48814876 -5.42603649 62.29279901 -0.5 62.5 C7.20247934 62.19732805 10.78110589 58.26253035 16 53 C19.69034779 54.49764809 23.37449227 56.00953075 27.0534668 57.53491211 C28.30607127 58.05189348 29.56030678 58.56494111 30.81616211 59.07397461 C32.61995553 59.80589711 34.4175123 60.55313098 36.21484375 61.30078125 C37.29886475 61.74591064 38.38288574 62.19104004 39.49975586 62.6496582 C42 64 42 64 43 67 C38.36759772 78.15804723 29.56690428 85.8866337 18.8203125 90.84765625 C15.56431187 92.17801662 12.42745718 93.22103246 9 94 C18.26204934 106.09211997 32.62188191 113.85548388 45.1875 122.125 C64.93662774 135.1231606 64.93662774 135.1231606 72 141 C72.93070313 141.77085937 73.86140625 142.54171875 74.8203125 143.3359375 C86.98525904 154.0988224 96.11028624 166.98120573 97.16845703 183.65429688 C97.69313208 196.94021073 97.23273817 209.3017855 93 222 C92.91602843 224.35680213 92.89271813 226.71594081 92.90234375 229.07421875 C92.9037587 229.7580513 92.90517365 230.44188385 92.90663147 231.1464386 C92.91222124 233.32683722 92.92477178 235.50713251 92.9375 237.6875 C92.94251633 239.16731622 92.947079 240.64713406 92.95117188 242.12695312 C92.96218729 245.75133557 92.97944488 249.3756577 93 253 C93.31525635 252.32960693 93.6305127 251.65921387 93.95532227 250.96850586 C98.78453779 240.9605264 105.76530112 234.84025025 114.25 227.875 C114.84031006 227.37685791 115.43062012 226.87871582 116.03881836 226.36547852 C118.49682184 224.41068287 120.29983381 223.04733828 123.484375 222.83203125 C127.20110682 224.55765674 129.97766671 227.07754669 133 229.8125 C134.20774248 230.8821779 135.41606532 231.95120093 136.625 233.01953125 C137.20008301 233.53354492 137.77516602 234.04755859 138.36767578 234.57714844 C139.78355618 235.81133195 141.25854138 236.97707273 142.7421875 238.12890625 C144.98779935 239.98988908 146.49803242 241.7156655 148.125 244.125 C148.84042969 245.14980469 148.84042969 245.14980469 149.5703125 246.1953125 C154.06146959 255.00583378 154.42139086 263.51271815 154.34057617 273.26220703 C154.33972824 274.67253094 154.34020827 276.08285617 154.34190369 277.49317932 C154.34275861 281.29217116 154.32521529 285.09087438 154.30418181 288.88979959 C154.28533031 292.87092502 154.28365793 296.85205826 154.28010559 300.83322144 C154.27080987 308.35884474 154.24622988 315.8843361 154.21605712 323.4099015 C154.18243575 331.98310761 154.16600772 340.55632027 154.15097082 349.12957597 C154.11967789 366.75312523 154.06696593 384.37655198 154 402 C151.75275118 402.80348804 149.50542606 403.60676152 147.25805664 404.40991211 C146.62491798 404.63631126 145.99177933 404.86271042 145.33945465 405.09597015 C131.36982443 410.08754124 117.65436925 413.64496917 103 416 C102.05592285 416.15243164 101.1118457 416.30486328 100.13916016 416.46191406 C81.97716096 419.29275252 63.94224657 419.8382957 45.61181641 418.48730469 C44.36848541 418.39632507 43.12515442 418.30534546 41.84414673 418.21160889 C40.90557831 418.14177795 39.96700989 418.07194702 39 418 C38.99453156 416.59630913 38.99453156 416.59630913 38.98895264 415.16426086 C38.9518216 406.29427269 38.89385381 397.4246259 38.81609726 388.55489826 C38.77678597 383.9961394 38.74451808 379.43756899 38.72900391 374.87866211 C38.71372863 370.46933056 38.67909389 366.06051767 38.63169098 361.65141869 C38.61698825 359.97918423 38.60896545 358.30687567 38.60811615 356.6345768 C38.5929983 341.7770911 36.91344732 329.15842579 26.15234375 318.1015625 C17.19934438 309.66474004 7.67996167 307.60071879 -4.36328125 307.7265625 C-14.68008735 308.50226221 -22.78713584 313.40315254 -29.75 320.87890625 C-37.23528881 330.14195116 -38.59802468 339.45399478 -38.609375 351.1015625 C-38.62591125 352.41917572 -38.64244751 353.73678894 -38.65948486 355.09432983 C-38.7028016 358.5630183 -38.72307695 362.03145565 -38.73822021 365.50036621 C-38.7579217 369.05377843 -38.79987597 372.60692443 -38.83984375 376.16015625 C-38.91475773 383.10666959 -38.96528265 390.0531724 -39 397 C-51.53068409 392.0416089 -63.49441996 385.28577811 -74.6875 377.8125 C-75.37996826 377.35053223 -76.07243652 376.88856445 -76.78588867 376.41259766 C-78.11088842 375.50704626 -79.42187405 374.58051595 -80.71530056 373.63041306 C-83.00651884 371.95401637 -83.00651884 371.95401637 -85.55382633 370.44185257 C-89.52316177 367.78108671 -92.47605879 365.70712266 -93.91351128 361.0235672 C-94.25009018 357.36642672 -94.26860799 353.82702406 -94.17944336 350.15527344 C-94.18157705 348.76470119 -94.18815872 347.3741298 -94.19882202 345.9835968 C-94.2155482 342.22400735 -94.17149324 338.46730578 -94.11707377 334.70816708 C-94.07129391 330.75931332 -94.08484128 326.81068011 -94.09266663 322.8616333 C-94.09910321 315.37816124 -94.05735146 307.89583213 -93.99594742 300.4126389 C-93.88791671 287.03380258 -93.8660277 273.65463399 -93.85540491 260.27541184 C-93.84984003 255.58856069 -93.82479157 250.90234476 -93.78267181 246.21568346 C-93.7586407 243.28592397 -93.74670647 240.35619042 -93.73720932 237.42635155 C-93.72674871 235.44386502 -93.70088557 233.46147793 -93.67436218 231.47914124 C-93.66175631 223.51976238 -94.81080723 216.63146516 -97 209 C-100.34252012 190.51897304 -97.91024959 172.11627673 -88 156 C-76.91527873 140.68413263 -58.68263429 130.37212764 -43.140625 120.13671875 C-25.20820369 108.69586313 -25.20820369 108.69586313 -9 95 C-10.670625 94.4121875 -10.670625 94.4121875 -12.375 93.8125 C-26.51716824 88.40959418 -37.6835734 80.4363003 -44.21484375 66.38671875 C-49.20597618 54.39734369 -49.5503594 42.3667113 -45.25390625 30.03125 C-40.08071291 17.52533714 -32.16120281 8.95526397 -19.89453125 3.19140625 C-18.93933594 2.79824219 -17.98414063 2.40507813 -17 2 C-16.11699219 1.61714844 -15.23398437 1.23429688 -14.32421875 0.83984375 C-11 0 -11 0 0 0 Z " fill="#FEDFB8" transform="translate(287,0)"/>
<path d="M0 0 C0 9.9 0 19.8 0 30 C-3.3 31.32 -6.6 32.64 -10 34 C-14.14426791 38.14426791 -15.82511197 40.90134362 -16.3125 46.75 C-16.23667782 51.3330296 -14.8631789 54.45468444 -12 58 C-8.33297182 61.48814876 -5.42603649 62.29279901 -0.5 62.5 C7.20247934 62.19732805 10.78110589 58.26253035 16 53 C19.69034779 54.49764809 23.37449227 56.00953075 27.0534668 57.53491211 C28.30607127 58.05189348 29.56030678 58.56494111 30.81616211 59.07397461 C32.61995553 59.80589711 34.4175123 60.55313098 36.21484375 61.30078125 C37.29886475 61.74591064 38.38288574 62.19104004 39.49975586 62.6496582 C42 64 42 64 43 67 C38.36759772 78.15804723 29.56690428 85.8866337 18.8203125 90.84765625 C15.56431187 92.17801662 12.42745718 93.22103246 9 94 C18.26204934 106.09211997 32.62188191 113.85548388 45.1875 122.125 C64.93662774 135.1231606 64.93662774 135.1231606 72 141 C72.93070313 141.77085937 73.86140625 142.54171875 74.8203125 143.3359375 C86.98525904 154.0988224 96.11028624 166.98120573 97.16845703 183.65429688 C97.69439787 196.9722631 98.09568603 210.80862794 92 223 C30.95 223 -30.1 223 -93 223 C-99.63904409 203.08286773 -100.90700788 182.19710746 -91.875 162.75 C-81.52077245 143.44076484 -60.93618098 131.85623252 -43.140625 120.13671875 C-25.20820369 108.69586313 -25.20820369 108.69586313 -9 95 C-10.670625 94.4121875 -10.670625 94.4121875 -12.375 93.8125 C-26.51716824 88.40959418 -37.6835734 80.4363003 -44.21484375 66.38671875 C-49.20597618 54.39734369 -49.5503594 42.3667113 -45.25390625 30.03125 C-40.08071291 17.52533714 -32.16120281 8.95526397 -19.89453125 3.19140625 C-18.93933594 2.79824219 -17.98414063 2.40507813 -17 2 C-16.11699219 1.61714844 -15.23398437 1.23429688 -14.32421875 0.83984375 C-11 0 -11 0 0 0 Z " fill="#FED82D" transform="translate(287,0)"/>
<path d="M0 0 C10.21293236 7.34898837 15.88253987 15.76595928 18.3125 28.25 C18.47950892 30.94791133 18.56755431 33.53451708 18.53955078 36.2265625 C18.53984283 36.97875565 18.54013489 37.73094879 18.54043579 38.50593567 C18.53905584 40.96241279 18.52355852 43.41857666 18.5078125 45.875 C18.50407761 47.58992345 18.50123289 49.30484904 18.49923706 51.01977539 C18.49163809 55.51110837 18.47202209 60.0023099 18.4498291 64.49359131 C18.42928978 69.08555321 18.42021812 73.67753655 18.41015625 78.26953125 C18.38877235 87.26307826 18.35468201 96.25652816 18.3125 105.25 C50.43082347 105.73160541 50.43082347 105.73160541 82.3125 102.25 C83.20340332 102.10546387 84.09430664 101.96092773 85.01220703 101.81201172 C111.86985913 97.44298635 136.32782821 87.94560903 160.3125 75.25 C160.95993164 74.91033203 161.60736328 74.57066406 162.27441406 74.22070312 C171.19857881 69.50157317 179.5096916 64.22245923 187.64233398 58.23535156 C191.09448822 55.71062312 194.19410161 53.58548064 198.3125 52.25 C187.63511878 74.67846557 174.17181444 95.5858528 156.90234375 113.54296875 C154.81644869 115.7232482 152.86278498 117.93101585 150.9375 120.25 C115.08149146 161.36374056 58.88371821 187.55001045 5.875 196.5625 C4.94139648 196.72194092 4.00779297 196.88138184 3.04589844 197.0456543 C-4.91218965 198.30728544 -12.55474836 198.70781656 -20.6875 199.25 C-21.0175 165.59 -21.3475 131.93 -21.6875 97.25 C-24.9875 96.59 -28.2875 95.93 -31.6875 95.25 C-33.56351477 94.68968056 -35.42799837 94.08581715 -37.265625 93.41015625 C-38.19890625 93.06919922 -39.1321875 92.72824219 -40.09375 92.37695312 C-41.0321875 92.02568359 -41.970625 91.67441406 -42.9375 91.3125 C-43.89140625 90.96509766 -44.8453125 90.61769531 -45.828125 90.25976562 C-50.60913483 88.49676825 -55.14727197 86.57833265 -59.6875 84.25 C-59.80412329 76.63441993 -59.89258063 69.01893417 -59.94656086 61.40266037 C-59.97248892 57.86479564 -60.00757094 54.32754848 -60.06469727 50.79003906 C-60.13017827 46.70892933 -60.15381863 42.62845282 -60.17578125 38.546875 C-60.20158768 37.29638367 -60.2273941 36.04589233 -60.25398254 34.75750732 C-60.25785339 22.45442446 -56.57363171 13.20579949 -48.01171875 4.375 C-34.67790603 -7.81591449 -15.40658587 -9.70044295 0 0 Z " fill="#00465E" transform="translate(307.6875,312.75)"/>
<path d="M0 0 C30.69 0 61.38 0 93 0 C93 27.72 93 55.44 93 84 C88.05 84.99 88.05 84.99 83 86 C72.36944934 88.76685565 64.75728736 94.62393727 59 104 C54.79695014 111.91131903 54.39923352 119.26759623 54.390625 128.1015625 C54.37408875 129.41917572 54.35755249 130.73678894 54.34051514 132.09432983 C54.2971984 135.5630183 54.27692305 139.03145565 54.26177979 142.50036621 C54.2420783 146.05377843 54.20012403 149.60692443 54.16015625 153.16015625 C54.08524227 160.10666959 54.03471735 167.0531724 54 174 C41.46931591 169.0416089 29.50558004 162.28577811 18.3125 154.8125 C17.62003174 154.35053223 16.92756348 153.88856445 16.21411133 153.41259766 C14.8891461 152.50706986 13.57821477 151.58053269 12.28487206 150.63038635 C9.99340595 148.95379322 9.99340595 148.95379322 7.44462013 147.4420929 C3.47311865 144.78137778 0.520503 142.71111726 -0.90610123 138.02125549 C-1.23129814 134.36147094 -1.23764658 130.82145218 -1.13525391 127.1484375 C-1.13242911 125.75811468 -1.13402445 124.36777696 -1.13967896 122.97746277 C-1.14253595 119.22259939 -1.08396295 115.47096283 -1.01393938 111.71684647 C-0.95121061 107.7865788 -0.94553551 103.85622813 -0.9336853 99.92553711 C-0.90266569 92.49128219 -0.82069304 85.05850667 -0.72019041 77.62490177 C-0.58726295 67.57373347 -0.53348761 57.52215746 -0.47516823 47.47033119 C-0.3812786 31.64578041 -0.18202857 15.82435074 0 0 Z " fill="#FEEDDA" transform="translate(194,223)"/>
<path d="M0 0 C3.63650625 1.81825312 6.45108785 4.32247546 9.453125 7.0390625 C10.66086748 8.1087404 11.86919032 9.17776343 13.078125 10.24609375 C13.65320801 10.76010742 14.22829102 11.27412109 14.82080078 11.80371094 C16.23668118 13.03789445 17.71166638 14.20363523 19.1953125 15.35546875 C21.44092435 17.21645158 22.95115742 18.942228 24.578125 21.3515625 C25.05507813 22.03476563 25.53203125 22.71796875 26.0234375 23.421875 C30.51459459 32.23239628 30.87451586 40.73928065 30.79370117 50.48876953 C30.79285324 51.89909344 30.79333327 53.30941867 30.79502869 54.71974182 C30.79588361 58.51873366 30.77834029 62.31743688 30.75730681 66.11636209 C30.73845531 70.09748752 30.73678293 74.07862076 30.73323059 78.05978394 C30.72393487 85.58540724 30.69935488 93.1108986 30.66918212 100.636464 C30.63556075 109.20967011 30.61913272 117.78288277 30.60409582 126.35613847 C30.57280289 143.97968773 30.52009093 161.60311448 30.453125 179.2265625 C28.20587618 180.03005054 25.95855106 180.83332402 23.71118164 181.63647461 C22.76147366 181.97607334 22.76147366 181.97607334 21.79257965 182.32253265 C11.17170072 186.11754163 0.7275574 189.34518087 -10.359375 191.4765625 C-11.62986694 191.72128296 -11.62986694 191.72128296 -12.92602539 191.97094727 C-17.39771524 192.78646752 -21.83669304 193.38279569 -26.3659668 193.77636719 C-27.34083542 193.86198914 -28.31570404 193.94761108 -29.32011414 194.03582764 C-30.05494522 194.09877014 -30.78977631 194.16171265 -31.546875 194.2265625 C-31.64042808 173.40752074 -31.71090795 152.58851379 -31.75412369 131.76930428 C-31.77472526 122.10199063 -31.8027998 112.4348078 -31.84863281 102.76757812 C-31.8885743 94.33896891 -31.91432529 85.91045446 -31.92322898 77.48175323 C-31.92843137 73.02118498 -31.94060848 68.56088779 -31.96979523 64.10040665 C-31.99708005 59.89626138 -32.00529379 55.69249712 -31.99930573 51.48827171 C-32.00040015 49.95084623 -32.00827605 48.41340712 -32.0236969 46.87605858 C-32.14390012 34.26708602 -30.35065471 25.25183933 -21.453125 15.96875 C-17.82415626 12.5446424 -14.11351048 9.252135 -10.296875 6.0390625 C-9.61141602 5.44955811 -8.92595703 4.86005371 -8.21972656 4.25268555 C-3.37214179 0.2999758 -3.37214179 0.2999758 0 0 Z " fill="#FEC272" transform="translate(410.546875,222.7734375)"/>
<path d="M0 0 C8 0 8 0 10.0390625 1.3984375 C10.56242187 2.05070312 11.08578125 2.70296875 11.625 3.375 C14.81907923 6.99232658 18.28154297 9.84055178 22.22265625 12.58984375 C22.82889328 13.01767654 23.43513031 13.44550934 24.05973816 13.88630676 C32.2554344 19.63387119 40.6310418 25.11756086 48.9909668 30.62182617 C90.8436195 58.20513861 90.8436195 58.20513861 96.49609375 83.140625 C98.43296753 97.97497613 98.82316934 115.35366131 92 129 C61.64 129 31.28 129 0 129 C0 86.43 0 43.86 0 0 Z " fill="#FCBE00" transform="translate(287,94)"/>
<path d="M0 0 C12.38452004 0 18.98342896 1.88989719 27.9375 10.25 C35.2786324 18.12406397 38.16536809 26.21845476 38.11352539 36.79785156 C38.11367142 37.57872131 38.11381744 38.35959106 38.1139679 39.16412354 C38.11327242 41.73965249 38.10549712 44.31510871 38.09765625 46.890625 C38.09579077 48.67852743 38.09436748 50.46643037 38.09336853 52.2543335 C38.08955357 56.95610978 38.07973198 61.65785508 38.06866455 66.35961914 C38.05842849 71.15901266 38.0538662 75.9584112 38.04882812 80.7578125 C38.03810881 90.1718886 38.02104463 99.58594172 38 109 C32.42291203 109.10564816 27.14744337 109.08343967 21.66015625 107.94140625 C20.57798828 107.72033203 19.49582031 107.49925781 18.38085938 107.27148438 C16.73827148 106.92053711 16.73827148 106.92053711 15.0625 106.5625 C13.94037109 106.33240234 12.81824219 106.10230469 11.66210938 105.86523438 C3.55803571 104.1860119 3.55803571 104.1860119 0 103 C0 69.01 0 35.02 0 0 Z " fill="#002C3C" transform="translate(287,308)"/>
<path d="M0 0 C10.23 0 20.46 0 31 0 C31 9.9 31 19.8 31 30 C40.9 30 50.8 30 61 30 C61 39.9 61 49.8 61 60 C51.1 60 41.2 60 31 60 C31 69.9 31 79.8 31 90 C20.77 90 10.54 90 0 90 C0 80.1 0 70.2 0 60 C-9.9 60 -19.8 60 -30 60 C-30 50.1 -30 40.2 -30 30 C-20.1 30 -10.2 30 0 30 C0 20.1 0 10.2 0 0 Z M1 30 C1 39.9 1 49.8 1 60 C10.57 60 20.14 60 30 60 C30 50.1 30 40.2 30 30 C20.43 30 10.86 30 1 30 Z " fill="#FCBE00" transform="translate(425,33)"/>
<path d="M0 0 C0 9.9 0 19.8 0 30 C-3.3 31.32 -6.6 32.64 -10 34 C-14.14426791 38.14426791 -15.82511197 40.90134362 -16.3125 46.75 C-16.23706178 51.30982104 -14.88642427 54.48996555 -12 58 C-7.71293603 61.54148762 -5.71335631 62.04777395 0 63 C-0.33 73.23 -0.66 83.46 -1 94 C-13.68782225 94 -22.20591369 90.98542229 -32 83 C-32.95519531 82.24976562 -32.95519531 82.24976562 -33.9296875 81.484375 C-42.29532214 74.12261651 -47.38750276 61.8069093 -48.24609375 50.86328125 C-48.7881193 35.93294098 -43.97703924 23.21062124 -33.875 12.25 C-28.90876496 7.50224569 -23.31703931 4.60013089 -17 2 C-16.11699219 1.61714844 -15.23398437 1.23429688 -14.32421875 0.83984375 C-11 -0 -11 -0 0 0 Z " fill="#FCBE00" transform="translate(287,0)"/>
<path d="M0 0 C3.63650625 1.81825312 6.45108785 4.32247546 9.453125 7.0390625 C10.66086748 8.1087404 11.86919032 9.17776343 13.078125 10.24609375 C13.65320801 10.76010742 14.22829102 11.27412109 14.82080078 11.80371094 C16.23668118 13.03789445 17.71166638 14.20363523 19.1953125 15.35546875 C21.44092435 17.21645158 22.95115742 18.942228 24.578125 21.3515625 C25.05507813 22.03476563 25.53203125 22.71796875 26.0234375 23.421875 C32.77324158 36.66329392 30.453125 46.39314507 30.453125 62.2265625 C9.993125 62.2265625 -10.466875 62.2265625 -31.546875 62.2265625 C-31.546875 26.49989583 -31.546875 26.49989583 -21.453125 15.96875 C-17.82415626 12.5446424 -14.11351048 9.252135 -10.296875 6.0390625 C-9.61141602 5.44955811 -8.92595703 4.86005371 -8.21972656 4.25268555 C-3.37214179 0.2999758 -3.37214179 0.2999758 0 0 Z " fill="#FF8755" transform="translate(410.546875,222.7734375)"/>
<path d="M0 0 C9.59538395 3.51129565 18.79543083 7.58231604 28 12 C26.27009325 17.72574769 23.79673177 21.46330195 20 26 C19.49597656 26.61230469 18.99195313 27.22460938 18.47265625 27.85546875 C12.27355432 34.72146673 3.04853575 39.2927291 -6 41 C-8.97 41 -11.94 41 -15 41 C-15 30.77 -15 20.54 -15 10 C-12.03 9.01 -9.06 8.02 -6 7 C-3.79392008 5.3118661 -3.79392008 5.3118661 -2.4375 3.3125 C-1.96183594 2.68988281 -1.48617188 2.06726562 -0.99609375 1.42578125 C-0.50302734 0.72001953 -0.50302734 0.72001953 0 0 Z " fill="#FE8755" transform="translate(302,53)"/>
</svg>
